Coordinates
version=1
nRows=23
nColumns=28
inDegrees=yes

Units are S.I. units (second, meters, Newtons, ...)
Angles are in degrees.

endheader
time	pelvis_tilt	pelvis_list	pelvis_rotation	pelvis_tx	pelvis_ty	pelvis_tz	hip_flexion_r	hip_adduction_r	hip_rotation_r	knee_angle_r	ankle_angle_r	subtalar_angle_r	mtp_angle_r	hip_flexion_l	hip_adduction_l	hip_rotation_l	knee_angle_l	socket_flexion	socket_adduction	socket_rotation	socket_tx	socket_ty	socket_tz	foot_flex	lumbar_extension	lumbar_bending	lumbar_rotation
      0.27083333	     -1.57982151	      2.23055797	      2.12299788	     -0.41669002	      0.98118968	      0.24331663	     16.53976204	     -4.17822469	      2.54061218	    -62.85962100	    -14.19944219	    -17.53357196	     14.88972667	     12.58430286	      3.18313459	     -4.48554992	    -22.85694543	     -0.98652066	     -2.17178425	     11.01804479	      0.00852044	     -0.00839109	     -0.01540508	      4.09618487	     -6.95406682	     -5.05983503	     -4.98099743
      0.27500000	     -0.90579444	      1.84732405	      1.93958212	     -0.41038751	      0.98337740	      0.24342009	     16.32867758	     -3.57821858	      2.59347873	    -62.45538954	    -13.42893188	    -18.05586695	     12.70644090	     11.05723373	      2.53824606	     -5.31886379	    -22.57095319	     -1.27875449	     -2.26823441	     11.82276167	      0.00707040	     -0.00878258	     -0.01580516	      4.23766199	     -7.61578106	     -4.59982727	     -5.07558493
      0.27916667	     -0.93637265	      1.74353475	      2.00124407	     -0.40454555	      0.98432875	      0.24255032	     17.01014575	     -3.56655051	      2.36679193	    -62.27424942	    -12.61544526	    -18.45634611	     12.59229305	     10.49366822	      2.53758033	     -5.41862787	    -22.39137663	     -1.43080749	     -2.40170332	     11.92998677	      0.00630833	     -0.00862357	     -0.01511161	      4.28885261	     -7.51585321	     -4.42005194	     -5.12518081
      0.28333333	     -0.90034075	      1.61502523	      2.01790560	     -0.39888759	      0.98531949	      0.24197970	     17.63794463	     -3.44323380	      2.23497894	    -62.09120024	    -11.68079468	    -18.91431265	     12.43509585	      9.88214328	      2.44386971	     -5.52898096	    -22.22429512	     -1.58508715	     -2.47718663	     12.07663288	      0.00558593	     -0.00848074	     -0.01466715	      4.36203338	     -7.52187793	     -4.22713735	     -5.27320919
      0.28750000	     -0.83540723	      1.45769270	      2.03511509	     -0.39320778	      0.98634580	      0.24139196	     18.19335089	     -3.27379354	      2.11947165	    -61.81317729	    -10.80765810	    -19.35888242	     12.22816808	      9.22929864	      2.29386439	     -5.65249455	    -22.04964475	     -1.75271823	     -2.53111375	     12.24313062	      0.00480550	     -0.00840273	     -0.01447072	      4.41782585	     -7.55802607	     -4.00182059	     -5.44673432
      0.29166667	     -0.74197397	      1.27751783	      2.04184550	     -0.38751523	      0.98743439	      0.24092642	     18.68499073	     -3.04888594	      2.01477538	    -61.45879845	     -9.93876750	    -19.82738115	     11.95014777	      8.54119740	      2.10381909	     -5.78589719	    -21.87190083	     -1.92822006	     -2.56776534	     12.43188694	      0.00402772	     -0.00829601	     -0.01420289	      4.46467272	     -7.62335731	     -3.75565629	     -5.63927679
      0.29583333	     -0.68350215	      1.13607642	      2.08175539	     -0.38228926	      0.98828597	      0.24016401	     19.31477605	     -2.92607212	      1.89019676	    -61.18598750	     -9.51303374	    -20.06848859	     11.82015440	      7.99166061	      2.03662584	     -5.79075925	    -21.73532354	     -2.04505408	     -2.68830996	     12.61253189	      0.00361131	     -0.00817771	     -0.01377483	      4.52436413	     -7.73558239	     -3.53277003	     -5.71946229
      0.30000000	     -0.67344092	      0.96838560	      2.11244491	     -0.37622636	      0.98935600	      0.23950471	     19.76348969	     -2.77011717	      1.71789815	    -60.59345467	     -8.69613093	    -20.52731380	     11.63499574	      7.34060135	      1.90268709	     -5.94367240	    -21.53075311	     -2.23387576	     -2.76318505	     12.71669581	      0.00270560	     -0.00792828	     -0.01334420	      4.56608970	     -7.63363952	     -3.29415260	     -5.87639448
      0.30416667	      0.11049168	      0.34135560	      2.02793916	     -0.37067925	      0.99136725	      0.24007471	     19.34241562	     -1.72642063	      1.77975014	    -59.88020596	     -7.85182779	    -21.44673285	      9.44542136	      5.84740403	      0.71786333	     -6.42431529	    -21.32701129	     -2.54694723	     -2.41722402	     13.34574864	      0.00135611	     -0.00855495	     -0.01599565	      4.61668968	     -8.55632493	     -2.51982696	     -6.43221446
      0.30833333	      0.02720901	      0.27825075	      2.14437113	     -0.36498201	      0.99225559	      0.23922562	     19.89876931	     -1.67850777	      1.66436831	    -59.23902507	     -7.38853967	    -21.71780272	      9.30907948	      5.40077129	      0.82033741	     -6.40485370	    -21.15867157	     -2.67207473	     -2.61535234	     13.48024011	      0.00090003	     -0.00802665	     -0.01483008	      4.59910401	     -8.41361515	     -2.43860344	     -6.40685371
      0.31250000	     -0.01178338	      0.17543687	      2.17499913	     -0.35938551	      0.99299785	      0.23844462	     20.47103350	     -1.63058188	      1.47524537	    -58.66712848	     -6.76893236	    -22.07273468	      9.15263222	      4.91330876	      0.82702597	     -6.49953775	    -21.00077131	     -2.79995496	     -2.74589515	     13.52948013	      0.00047789	     -0.00769797	     -0.01409019	      4.62548670	     -8.33894976	     -2.25467679	     -6.46238258
      0.31666667	      0.07668505	      0.00050877	      2.18945459	     -0.35408183	      0.99374990	      0.23816599	     20.92324402	     -1.35368087	      1.40615980	    -58.13469120	     -5.75997972	    -22.66396117	      8.63418040	      4.31604821	      0.59232406	     -6.61927978	    -20.85777470	     -2.95747541	     -2.71803858	     13.68631593	     -0.00000057	     -0.00765170	     -0.01418305	      4.59846502	     -8.47209581	     -2.01662974	     -6.72000089
      0.32083333	      0.02749927	     -0.07329576	      2.29005089	     -0.34858062	      0.99462096	      0.23742978	     21.36693324	     -1.24973506	      1.36180127	    -57.28220573	     -5.46602223	    -22.83131864	      8.47268624	      3.91732620	      0.60766644	     -6.63164629	    -20.74518566	     -3.04525238	     -2.84087836	     13.77481484	     -0.00012500	     -0.00696910	     -0.01365317	      4.65233699	     -8.39925107	     -1.92251523	     -6.77408985
      0.32500000	     -0.01979248	     -0.21705082	      2.33868054	     -0.34296167	      0.99528877	      0.23668794	     21.84742073	     -1.11852499	      1.20742982	    -56.49999288	     -4.96296114	    -23.12805432	      8.27454095	      3.41290079	      0.57450749	     -6.69545502	    -20.56692261	     -3.19072019	     -2.98189586	     13.85235438	     -0.00072206	     -0.00671077	     -0.01278483	      4.66143299	     -8.31096138	     -1.68803281	     -6.88240197
      0.32916667	      0.53179098	     -0.93219636	      2.44373530	     -0.33739990	      0.99680113	      0.23686329	     21.48065836	     -0.07213847	      1.08850267	    -55.35621135	     -4.41707999	    -23.90596669	      5.40788487	      2.23969808	     -0.62654102	     -6.85617986	    -20.38763729	     -3.47399440	     -2.65910620	     14.29327190	     -0.00190043	     -0.00732941	     -0.01528435	      4.67679578	     -8.94265842	     -0.81767648	     -7.53781286
      0.33333333	      0.43016039	     -0.92521027	      2.52803953	     -0.33204691	      0.99737906	      0.23619209	     21.98196570	     -0.07589928	      1.03374786	    -54.47119845	     -4.01989639	    -24.11511845	      5.30674279	      1.92811714	     -0.49893792	     -6.87993924	    -20.28490967	     -3.54887683	     -2.78095259	     14.32564308	     -0.00184608	     -0.00664866	     -0.01450423	      4.67573724	     -8.83973211	     -0.81284031	     -7.52105130
      0.33750000	      0.32208092	     -0.97608731	      2.58395707	     -0.32664360	      0.99781586	      0.23546845	     22.48685975	     -0.03067251	      0.94531245	    -53.57715874	     -3.54985514	    -24.35957099	      5.19172582	      1.55892838	     -0.40297004	     -6.91221272	    -20.14267683	     -3.64930298	     -2.94763456	     14.35437610	     -0.00214230	     -0.00622930	     -0.01349679	      4.68893342	     -8.72245241	     -0.71475647	     -7.55643759
      0.34166667	      0.22864937	     -1.03368845	      2.64590601	     -0.32130567	      0.99822504	      0.23483846	     22.95318682	      0.04400351	      0.87573231	    -52.63000733	     -3.09063960	    -24.58892244	      5.06870792	      1.19831874	     -0.35102546	     -6.94604510	    -20.01607181	     -3.74427750	     -3.07746940	     14.38415551	     -0.00236350	     -0.00581633	     -0.01272497	      4.70002308	     -8.63522940	     -0.61612866	     -7.63282091
      0.34583333	      0.14177935	     -1.10757906	      2.70669675	     -0.31596002	      0.99862026	      0.23420790	     23.38328249	      0.13721535	      0.81004754	    -51.61800625	     -2.64644978	    -24.80580083	      4.93767364	      0.83528273	     -0.32405686	     -6.97043935	    -19.89169654	     -3.84011779	     -3.19791195	     14.42092713	     -0.00255655	     -0.00539407	     -0.01202341	      4.71492193	     -8.55269274	     -0.50400233	     -7.73497993
      0.35000000	      0.06308483	     -1.17102285	      2.74330123	     -0.31063590	      0.99897504	      0.23366361	     23.78413720	      0.22378235	      0.74289518	    -50.54565069	     -2.24090722	    -24.99788313	      4.81507412	      0.49539324	     -0.30574611	     -6.98825713	    -19.78665540	     -3.92415714	     -3.29656318	     14.45729767	     -0.00250625	     -0.00493881	     -0.01152051	      4.73177660	     -8.47830788	     -0.40023437	     -7.84450355
      0.35416667	      0.37080633	     -1.82689222	      2.97542013	     -0.30519497	      0.99978627	      0.23338306	     23.53345923	      1.08114998	      0.54479092	    -49.09728716	     -1.65491699	    -25.37833303	      2.88211865	     -0.37235723	     -1.26502938	     -6.80957939	    -19.61782296	     -4.16478528	     -3.05868225	     14.65416275	     -0.00362179	     -0.00556814	     -0.01289176	      4.75956355	     -8.83123721	      0.44831049	     -8.65379687
      0.35833333	      0.26264403	     -1.77497463	      3.01163502	     -0.29993147	      1.00003781	      0.23292938	     23.95316774	      1.02229842	      0.48330814	    -47.97906752	     -1.36808046	    -25.52177130	      2.80415632	     -0.62774679	     -1.15809541	     -6.86241215	    -19.54463399	     -4.22206144	     -3.13206906	     14.63787414	     -0.00335461	     -0.00491695	     -0.01277779	      4.76821424	     -8.74369864	      0.38834275	     -8.64973627
      0.36250000	      0.09282919	     -1.85009030	      3.08197711	     -0.29446812	      1.00007773	      0.23218407	     24.35330008	      1.11787138	      0.45987092	    -46.77228766	     -0.91983829	    -25.72211425	      2.64949441	     -1.00428510	     -1.01816084	     -6.82233553	    -19.35264878	     -4.34284824	     -3.39809781	     14.68335108	     -0.00410263	     -0.00472172	     -0.01114495	      4.79397465	     -8.55850072	      0.52213240	     -8.70070247
